<svg width="25" height="25" viewBox="0 0 25 25" fill="none" xmlns="http://www.w3.org/2000/svg">
<g id="phone-01">
<path id="Icon" d="M12.2401 18.394H12.2501M8.44011 22.894H16.0401C17.1602 22.894 17.7203 22.894 18.1481 22.6761C18.5244 22.4843 18.8304 22.1783 19.0221 21.802C19.2401 21.3742 19.2401 20.8141 19.2401 19.694V6.09404C19.2401 4.97394 19.2401 4.41389 19.0221 3.98606C18.8304 3.60974 18.5244 3.30378 18.1481 3.11203C17.7203 2.89404 17.1602 2.89404 16.0401 2.89404H8.44011C7.32001 2.89404 6.75995 2.89404 6.33213 3.11203C5.95581 3.30378 5.64985 3.60974 5.4581 3.98606C5.24011 4.41389 5.24011 4.97394 5.24011 6.09404V19.694C5.24011 20.8141 5.24011 21.3742 5.4581 21.802C5.64985 22.1783 5.95581 22.4843 6.33213 22.6761C6.75995 22.894 7.32001 22.894 8.44011 22.894ZM12.7401 18.394C12.7401 18.6702 12.5163 18.894 12.2401 18.894C11.964 18.894 11.7401 18.6702 11.7401 18.394C11.7401 18.1179 11.964 17.894 12.2401 17.894C12.5163 17.894 12.7401 18.1179 12.7401 18.394Z" stroke="#E4001D" stroke-width="2" stroke-linecap="round" stroke-linejoin="round"/>
</g>
</svg>
