<svg width="88" height="54" viewBox="0 0 88 54" fill="none" xmlns="http://www.w3.org/2000/svg">
<g id="logo 1" clip-path="url(#clip0_106_71)">
<path id="Vector" d="M50.7055 11.0921C50.91 11.4065 51.0269 11.7703 51.0439 12.1455C51.061 12.5208 50.9775 12.8938 50.8023 13.2256C50.0807 14.5357 48.4439 14.8279 47.0887 14.7305C46.6059 14.7136 46.1326 14.5917 45.7011 14.3731C45.2697 14.1546 44.8905 13.8447 44.5895 13.4646C44.365 13.1004 44.2461 12.6803 44.2461 12.2518C44.2461 11.8233 44.365 11.4032 44.5895 11.039C45.0047 10.5221 45.5508 10.1276 46.1704 9.89698C46.7899 9.66639 47.4599 9.6083 48.1095 9.72886C49.1102 9.85274 50.0324 10.337 50.7055 11.0921Z" fill="#E4001D"/>
<path id="Vector_2" d="M84.5416 26.699C83.6616 27.1859 82.3768 27.9118 81.3648 27.1416C81.1451 26.8677 81.0408 26.5181 81.0744 26.1678L83.5296 17.3951C81.7696 17.3419 79.9128 17.2977 78.0824 17.3419L77.6512 18.7052C77.4016 18.3432 77.1057 18.0158 76.7712 17.7314C74.8968 16.377 72.1952 16.8462 70.2152 17.6341C67.232 19.0947 64.8736 21.8567 64.8208 25.3446C63.2368 26.7521 61.1688 28.3278 58.8984 27.4426C57.7896 26.8141 57.8424 25.3092 58.0184 24.1406C58.3528 22.2993 58.8984 20.2633 60.764 19.44C61.9696 18.9088 63.1224 19.679 63.9936 20.458C64.2669 19.6307 64.4931 18.7883 64.6712 17.9351C62.2072 16.3328 58.4056 16.8196 55.9944 18.2272C53.5832 19.6347 51.3656 22.3524 51.5944 25.5482C51.1477 25.9735 50.6441 26.334 50.0984 26.6193C49.28 27 48.0744 27.6816 47.2032 26.8583C47.0239 26.5508 46.9411 26.196 46.9656 25.8403C47.74 22.981 48.5584 20.0685 49.324 17.2092C47.3 17.2092 45.1792 17.156 43.252 17.2623L41.0344 24.9196C39.4014 26.0171 37.5909 26.8199 35.684 27.2921C33.8536 27.7347 31.4952 28.1154 29.9552 26.8583C29.7416 26.6087 29.5903 26.3114 29.5138 25.9912C29.4372 25.671 29.4377 25.337 29.5152 25.017C32.7448 25.3092 36.2648 24.8665 38.3152 22.4941C38.6604 22.0183 38.8883 21.4668 38.9801 20.885C39.0719 20.3032 39.025 19.7078 38.8432 19.1478L38.368 18.3688C35.86 16.0937 31.4248 16.5983 28.4856 17.696C27.0028 18.2668 25.7156 19.2564 24.7789 20.5458C23.8421 21.8352 23.2958 23.3694 23.2056 24.9639C23.2619 25.846 23.5319 26.7008 23.9921 27.4538C24.4523 28.2068 25.0886 28.8351 25.8456 29.2839C30.6152 32.0901 36.5464 29.8151 40.8056 27.5134C40.8056 27.5134 40.9464 27.6108 40.9024 27.6551C41.0518 28.3407 41.3876 28.9712 41.8724 29.4761C42.3572 29.981 42.9719 30.3404 43.648 30.5144C46.9304 31.0013 49.8696 29.6292 52.3248 27.6551C53.3368 29.5495 55.5104 30.5144 57.6752 30.7092V30.6649C60.6672 30.7623 63.1752 29.3547 65.34 27.5134C66.0001 28.8311 67.1133 29.8629 68.4728 30.417C69.6954 30.7928 70.9967 30.8265 72.237 30.5146C73.4773 30.2026 74.6097 29.5569 75.5128 28.6465C75.8176 29.3409 76.3197 29.9292 76.956 30.3374C79.8072 31.7006 82.8432 30.001 85.008 28.5669C84.9564 27.9225 84.7988 27.2913 84.5416 26.699ZM32.252 18.8026C33.0176 18.5105 34.364 18.2183 34.7512 19.2364C34.8518 19.869 34.775 20.5174 34.5294 21.1085C34.2837 21.6997 33.879 22.2102 33.3608 22.5826C32.2984 23.2047 31.0511 23.4274 29.8408 23.2111C30.3688 21.6088 30.8528 19.8649 32.252 18.8026ZM75.4776 25.4951C75.2754 26.0601 74.9438 26.5694 74.5096 26.9816C74.0754 27.3937 73.5509 27.6972 72.9784 27.8675C72.6725 27.9022 72.3629 27.8531 72.0826 27.7253C71.8022 27.5975 71.5613 27.3958 71.3856 27.1416C70.664 25.1498 71.676 23.2111 72.2656 21.4141C72.7392 20.4258 73.5609 19.6497 74.5712 19.2364C74.9309 19.1684 75.3026 19.2106 75.6383 19.3573C75.974 19.5041 76.2583 19.7487 76.4544 20.0596C77.1232 21.9983 75.9176 23.7423 75.4776 25.4951Z" fill="#E4001D"/>
<path id="Vector_3" d="M85.8001 32.037C80.8725 33.2008 75.8755 34.0435 70.8401 34.56C60.8149 35.3017 50.7515 35.3667 40.7177 34.7547C32.657 34.119 24.6978 32.5385 17.0017 30.0452C19.5097 26.3626 20.4249 21.9541 21.7801 17.6518C23.9373 17.3106 25.9915 16.4889 27.7926 15.2468C29.5937 14.0047 31.0963 12.3735 32.1905 10.4724C33.2465 8.29471 34.3113 5.42651 33.0705 2.95667C32.6502 2.24805 32.0902 1.63347 31.4249 1.15077C28.9697 -0.451525 25.5201 0.185852 23.2321 1.68192C17.8377 4.54126 17.0193 10.6583 15.4705 15.8459C13.8854 15.7826 12.315 15.5148 10.7977 15.0491C10.4971 15.5769 10.2859 16.1513 10.1729 16.7488C11.7063 17.3635 13.3176 17.7598 14.9601 17.9262C14.2546 20.9138 13.334 23.8458 12.2057 26.699C11.8713 27.2832 11.8273 28.1065 11.2465 28.5491C8.21047 27.8232 4.25927 26.7786 1.36407 28.5491C0.919432 28.8628 0.561101 29.2847 0.322563 29.7754C0.0840259 30.2662 -0.0269302 30.8098 6.56415e-05 31.3554C0.0887306 32.0669 0.356818 32.7438 0.778845 33.3218C1.20087 33.8997 1.76282 34.3594 2.41127 34.6573C6.51207 36.6403 11.4401 35.2416 14.8457 32.7541C17.4857 33.6393 20.0025 34.5954 22.6601 35.4098C30.8001 37.5875 39.1865 39.5262 48.1801 39.2429V39.2872C60.9881 39.1523 73.7292 37.4097 86.1081 34.0996L86.3017 33.958L85.8001 32.037ZM25.5993 5.17864C26.2241 4.16061 27.1833 2.94782 28.5385 2.85044C29.1193 2.85044 29.6913 2.85044 30.1313 3.33733C31.4249 4.59438 31.0113 6.87831 30.4129 8.37438C29.7041 10.1014 28.6023 11.6371 27.1962 12.8578C25.7901 14.0786 24.1189 14.9504 22.3169 15.4032C22.9873 11.8718 24.0898 8.43749 25.5993 5.17864ZM3.57287 32.7541C3.18567 32.5062 2.69287 32.1167 2.69287 31.5855C2.7082 31.3595 2.77687 31.1404 2.89318 30.9465C3.00949 30.7525 3.17009 30.5892 3.36167 30.4701C5.28887 29.4521 7.50647 30.5232 9.38967 31.0544L9.72407 31.2049C8.19287 32.5681 5.79047 33.6393 3.57287 32.7541Z" fill="#E4001D"/>
<path id="Vector_4" d="M10.7886 53.522V47.3253H12.6982C13.2267 47.2868 13.7515 47.4407 14.1766 47.759C14.3502 47.9198 14.4856 48.1179 14.5724 48.3387C14.6593 48.5594 14.6954 48.797 14.6782 49.0338C14.6848 49.3198 14.6116 49.6019 14.467 49.8482C14.334 50.0708 14.1335 50.2446 13.895 50.344C14.1633 50.4172 14.3934 50.5916 14.5374 50.8308C14.6985 51.0969 14.7781 51.4048 14.7662 51.7161C14.7844 51.9654 14.7499 52.2158 14.6649 52.4508C14.58 52.6858 14.4465 52.9 14.2734 53.0794C13.8723 53.4142 13.3591 53.5821 12.839 53.5485L10.7886 53.522ZM12.0382 49.8925H12.6894C12.7905 49.9046 12.8931 49.8931 12.9891 49.8587C13.085 49.8243 13.1718 49.768 13.2425 49.6943C13.3133 49.6206 13.3661 49.5313 13.3968 49.4336C13.4276 49.336 13.4354 49.2324 13.4198 49.1312C13.4409 48.9138 13.3813 48.6962 13.2526 48.5203C13.1779 48.4526 13.0901 48.4012 12.9947 48.3692C12.8993 48.3372 12.7983 48.3254 12.6982 48.3344H12.0382V49.8925ZM12.0382 50.7777V52.442H12.839C12.9344 52.447 13.0297 52.4305 13.118 52.3938C13.2063 52.357 13.2854 52.3009 13.3494 52.2295C13.474 52.0584 13.5333 51.8479 13.5166 51.6364C13.5166 51.0787 13.323 50.7512 12.9182 50.7512L12.0382 50.7777Z" fill="#E4001D"/>
<path id="Vector_5" d="M19.6329 53.5219H18.3833V47.3252H19.6329V53.5219Z" fill="#E4001D"/>
<path id="Vector_6" d="M27.7026 50.9636C27.747 51.6632 27.5375 52.3552 27.113 52.9112C26.9103 53.1438 26.6575 53.3269 26.3739 53.4465C26.0903 53.5662 25.7833 53.6192 25.4762 53.6017C25.1703 53.6165 24.8649 53.563 24.582 53.4452C24.299 53.3274 24.0454 53.148 23.8394 52.92C23.413 52.3715 23.2003 51.6853 23.241 50.9902V49.9279C23.1974 49.2092 23.4061 48.498 23.8306 47.9184C24.0304 47.6804 24.2819 47.4919 24.5658 47.3676C24.8497 47.2432 25.1582 47.1863 25.4674 47.2013C25.7757 47.1879 26.0829 47.2446 26.3663 47.3672C26.6497 47.4898 26.9019 47.6752 27.1042 47.9095C27.5342 48.4801 27.7465 49.1868 27.7026 49.9013V50.9636ZM26.453 49.919C26.475 49.4955 26.3935 49.073 26.2154 48.6885C26.1406 48.5575 26.031 48.4501 25.8989 48.3782C25.7668 48.3062 25.6174 48.2727 25.4674 48.2813C25.321 48.2732 25.1751 48.3061 25.0461 48.3764C24.9172 48.4468 24.8102 48.5518 24.737 48.6797C24.5512 49.0523 24.4662 49.4675 24.4906 49.8836V50.9902C24.4631 51.4055 24.545 51.8209 24.7282 52.1941C24.8106 52.3168 24.9222 52.4167 25.0529 52.4847C25.1836 52.5528 25.3291 52.5868 25.4762 52.5836C25.6205 52.5907 25.7641 52.5592 25.8924 52.4923C26.0207 52.4255 26.1291 52.3256 26.2066 52.203C26.3887 51.8386 26.4736 51.4329 26.453 51.0256V49.919Z" fill="#E4001D"/>
<g id="Group">
<path id="Vector_7" d="M33.8711 51.8842C33.8792 51.7801 33.8663 51.6754 33.833 51.5765C33.7997 51.4776 33.7468 51.3865 33.6775 51.3088C33.4713 51.1284 33.2322 50.9901 32.9735 50.9016C32.4836 50.7295 32.0406 50.4445 31.6798 50.0695C31.4104 49.7586 31.266 49.3576 31.2751 48.9452C31.2657 48.7057 31.3107 48.4672 31.4068 48.2478C31.5028 48.0284 31.6474 47.834 31.8294 47.6793C32.2245 47.3515 32.7257 47.1813 33.2375 47.2013C33.5921 47.1953 33.9427 47.2774 34.2582 47.4403C34.5457 47.5988 34.7834 47.8349 34.9446 48.1219C35.1066 48.433 35.1882 48.78 35.1822 49.1311H33.8886C33.9034 48.8924 33.8384 48.6556 33.7038 48.4583C33.6388 48.3829 33.5573 48.3237 33.4657 48.2853C33.3741 48.2469 33.2749 48.2304 33.1759 48.237C33.0819 48.231 32.9877 48.2452 32.8997 48.2788C32.8117 48.3124 32.7318 48.3646 32.6654 48.4318C32.6013 48.5019 32.5519 48.5842 32.5201 48.674C32.4884 48.7637 32.475 48.859 32.4806 48.9541C32.4821 49.0405 32.5007 49.1258 32.5355 49.2049C32.5702 49.2839 32.6204 49.3552 32.683 49.4144C32.8964 49.6005 33.1406 49.7474 33.4046 49.8482C33.905 50.0007 34.3591 50.2778 34.7246 50.6537C35.0104 50.9941 35.1581 51.4303 35.1382 51.8754C35.1468 52.1075 35.1047 52.3388 35.015 52.5529C34.9253 52.7669 34.7902 52.9587 34.619 53.1147C34.227 53.4402 33.7273 53.6046 33.2198 53.5751C32.8417 53.5813 32.4675 53.4963 32.1286 53.3272C31.8051 53.1756 31.535 52.9286 31.3543 52.619C31.1627 52.2889 31.0653 51.9122 31.0727 51.5301H32.3311C32.3072 51.8068 32.3821 52.083 32.5422 52.3092C32.6314 52.3963 32.7379 52.4634 32.8547 52.5061C32.9714 52.5488 33.0959 52.5662 33.2198 52.557C33.6598 52.5836 33.8711 52.3446 33.8711 51.8842Z" fill="white"/>
<path id="Vector_8" d="M40.4799 50.0872L41.4127 47.2898H42.7679L41.1223 51.2557V53.5219H39.8551V51.2557L38.1919 47.2898H39.5999L40.4799 50.0872Z" fill="white"/>
<path id="Vector_9" d="M48.5492 51.8842C48.5686 51.6917 48.5152 51.4989 48.3996 51.3442C48.1935 51.1637 47.9544 51.0254 47.6956 50.937C47.1901 50.7712 46.7314 50.4858 46.358 50.1049C46.0886 49.7939 45.9442 49.393 45.9532 48.9806C45.9438 48.7411 45.9889 48.5025 46.085 48.2832C46.181 48.0638 46.3256 47.8694 46.5076 47.7147C46.8488 47.452 47.2562 47.2904 47.6838 47.2482C48.1114 47.2059 48.5422 47.2847 48.9276 47.4757C49.2183 47.6328 49.4592 47.869 49.6228 48.1573C49.7847 48.4684 49.8664 48.8154 49.8604 49.1665H48.5668C48.5816 48.9278 48.5166 48.6909 48.382 48.4937C48.2416 48.3605 48.0559 48.2863 47.8628 48.2863C47.6698 48.2863 47.4841 48.3605 47.3436 48.4937C47.2795 48.5638 47.2301 48.6462 47.1983 48.7359C47.1666 48.8257 47.1531 48.9209 47.1588 49.016C47.1602 49.1025 47.1789 49.1877 47.2137 49.2668C47.2484 49.3459 47.2986 49.4171 47.3612 49.4763C47.5732 49.6643 47.8178 49.8114 48.0828 49.9101C48.5832 50.0626 49.0372 50.3397 49.4028 50.7157C49.6854 51.0573 49.8299 51.4934 49.8076 51.9373C49.8062 52.1598 49.7585 52.3795 49.6675 52.5822C49.5766 52.785 49.4445 52.9664 49.2796 53.1147C48.8876 53.4401 48.3879 53.6046 47.8804 53.575C47.5021 53.5823 47.1277 53.4973 46.7892 53.3272C46.4657 53.1755 46.1956 52.9286 46.0148 52.619C45.8372 52.2941 45.7491 51.9273 45.7596 51.5567H47.018C46.9942 51.8333 47.0691 52.1095 47.2292 52.3357C47.3184 52.4228 47.4249 52.4899 47.5416 52.5326C47.6584 52.5753 47.7829 52.5927 47.9068 52.5835C48.3292 52.5835 48.5492 52.3445 48.5492 51.8842Z" fill="white"/>
<path id="Vector_10" d="M57.3056 48.3344H55.7744V53.5219H54.56V48.3344H53.02V47.2898H57.3056V48.3344Z" fill="white"/>
<path id="Vector_11" d="M63.8877 50.8219H61.9341V52.4773H64.2397V53.5219H60.7197V47.3252H64.2397V48.3344H61.9341V49.8039H63.8877V50.8219Z" fill="white"/>
<path id="Vector_12" d="M69.3614 47.2898L70.5318 51.7957L71.7022 47.2898H73.3302V53.4865H72.0806V51.8311L72.1598 49.2373L70.919 53.5219H70.039L68.7982 49.2373L68.9126 51.8311V53.5219H67.7598V47.3252L69.3614 47.2898Z" fill="white"/>
<path id="Vector_13" d="M79.5873 51.8842C79.5999 51.6744 79.5304 51.4679 79.3937 51.3088C79.1847 51.1324 78.9464 50.9946 78.6897 50.9016C78.1806 50.7377 77.7187 50.4522 77.3433 50.0695C77.0774 49.7564 76.9336 49.3569 76.9385 48.9452C76.9291 48.7057 76.9741 48.4672 77.0702 48.2478C77.1663 48.0284 77.3108 47.834 77.4929 47.6793C77.8883 47.3522 78.3892 47.1821 78.9009 47.2013C79.2556 47.1942 79.6065 47.2763 79.9217 47.4403C80.2111 47.596 80.4496 47.8328 80.6081 48.1219C80.77 48.433 80.8517 48.78 80.8457 49.1311H79.6049C79.6197 48.8924 79.5546 48.6556 79.4201 48.4583C79.2782 48.3245 79.091 48.2501 78.8965 48.2501C78.702 48.2501 78.5148 48.3245 78.3729 48.4583C78.3087 48.5284 78.2593 48.6108 78.2276 48.7005C78.1958 48.7903 78.1824 48.8855 78.1881 48.9806C78.1895 49.0671 78.2081 49.1524 78.2429 49.2314C78.2777 49.3105 78.3278 49.3817 78.3905 49.441C78.6059 49.6288 78.8533 49.7757 79.1209 49.8747C79.6176 50.0296 80.0682 50.3065 80.4321 50.6803C80.7178 51.0207 80.8655 51.4569 80.8457 51.9019C80.8503 52.1297 80.8064 52.3558 80.7168 52.565C80.6273 52.7742 80.4942 52.9617 80.3265 53.1147C79.9345 53.4402 79.4347 53.6046 78.9273 53.5751C78.5491 53.5813 78.1749 53.4963 77.8361 53.3272C77.5143 53.1728 77.245 52.9265 77.0617 52.619C76.8728 52.2882 76.7784 51.9114 76.7889 51.5301H78.0385C78.0146 51.8068 78.0895 52.083 78.2497 52.3092C78.3388 52.3963 78.4453 52.4634 78.5621 52.5061C78.6789 52.5488 78.8033 52.5662 78.9273 52.557C79.3673 52.5836 79.5873 52.3446 79.5873 51.8842Z" fill="white"/>
</g>
</g>
<defs>
<clipPath id="clip0_106_71">
<rect width="88" height="54" fill="white"/>
</clipPath>
</defs>
</svg>
