<svg width="92" height="56" viewBox="0 0 92 56" fill="none" xmlns="http://www.w3.org/2000/svg">
<g id="Group 1682">
<path id="Vector" fill-rule="evenodd" clip-rule="evenodd" d="M9.18228 26.6999L12.4028 11.313H17.6725C18.4725 11.2961 19.2728 11.3317 20.0682 11.4194C20.7453 11.4992 21.3997 11.7134 21.9928 12.0495C22.5038 12.3478 22.9198 12.7848 23.1928 13.3097C23.4679 13.8485 23.6082 14.446 23.6016 15.0509C23.6197 15.8502 23.369 16.6324 22.8896 17.2723C22.3193 17.9618 21.5498 18.4582 20.6864 18.6935C21.4102 18.871 22.0569 19.2783 22.5298 19.8543C22.9634 20.3863 23.1983 21.0527 23.1942 21.739C23.1911 22.6731 22.9173 23.5862 22.4059 24.3679C21.8953 25.185 21.1317 25.8129 20.2313 26.1559C19.0107 26.5652 17.726 26.7498 16.4396 26.7006L9.18228 26.6999ZM14.265 17.5237H16.6853C17.4748 17.5572 18.2652 17.4804 19.0335 17.2954C19.4664 17.1731 19.845 16.9076 20.1074 16.5421C20.3395 16.2145 20.4653 15.8234 20.468 15.4219C20.4817 15.0698 20.3605 14.7258 20.1291 14.46C19.873 14.1915 19.5358 14.0144 19.1693 13.9559C18.6111 13.8993 18.0499 13.8782 17.489 13.8929H15.0247L14.265 17.5237ZM12.8599 24.2307H15.9208C16.7902 24.2774 17.6617 24.1937 18.5063 23.9821C18.9316 23.826 19.2984 23.5424 19.5564 23.17C19.8085 22.822 19.9456 22.4039 19.9485 21.9742C19.954 21.7348 19.9062 21.4972 19.8086 21.2785C19.7111 21.0599 19.5661 20.8656 19.3842 20.7098C18.8319 20.3276 18.1629 20.1512 17.4939 20.2114H13.7015L12.8599 24.2307ZM26.9159 11.313H29.9264L29.3558 14.0434H26.3454L26.9159 11.313ZM26.0275 15.5473H29.038L26.7031 26.6999H23.6927L26.0275 15.5473ZM29.0877 22.0722C28.9949 20.2554 29.622 18.4752 30.833 17.1176C31.4227 16.5017 32.1365 16.0182 32.9272 15.6992C33.718 15.3802 34.5675 15.2329 35.4194 15.2672C36.1194 15.2261 36.8204 15.3257 37.4812 15.5602C38.142 15.7947 38.7491 16.1593 39.2665 16.6324C39.7368 17.1164 40.1024 17.6919 40.3405 18.3233C40.5787 18.9547 40.6842 19.6284 40.6506 20.3024C40.6809 22.0296 40.0638 23.7056 38.9206 25.0008C38.3446 25.6552 37.6295 26.1726 36.8277 26.515C36.0259 26.8575 35.1577 27.0163 34.2866 26.98C33.3199 27.0006 32.3628 26.7843 31.4988 26.3499C30.7198 25.962 30.0852 25.3353 29.6877 24.5611C29.2885 23.7925 29.0826 22.9383 29.0877 22.0722ZM37.6626 19.9075C37.6932 19.271 37.4701 18.6484 37.0423 18.1762C36.8349 17.9603 36.5842 17.7906 36.3067 17.6783C36.0293 17.566 35.7312 17.5135 35.432 17.5244C34.8025 17.5183 34.191 17.7342 33.7049 18.1341C33.1594 18.6036 32.7543 19.2146 32.5343 19.8998C32.2724 20.5818 32.1303 21.304 32.1142 22.0344C32.077 22.7326 32.3084 23.4185 32.7611 23.9513C32.9659 24.1809 33.218 24.3632 33.5002 24.4858C33.7823 24.6084 34.0876 24.6682 34.3952 24.6612C34.8008 24.661 35.2006 24.5638 35.561 24.3775C35.9213 24.1913 36.2319 23.9215 36.4668 23.5908C37.2784 22.5378 37.7009 21.2365 37.6626 19.9075ZM57.2564 11.313H60.2669L59.6949 14.0434H56.6844L57.2564 11.313ZM56.3694 15.5473H59.3798L57.0422 26.6999H54.0317L56.3694 15.5473ZM59.0214 26.6999H62.0318L62.9756 22.1226C63.1332 21.2052 63.3961 20.309 63.759 19.4517C64.0539 18.8587 64.4948 18.3504 65.0402 17.9745C65.4685 17.6434 65.9862 17.4483 66.5265 17.4144C66.7009 17.4036 66.8758 17.4279 67.0406 17.4858C67.2055 17.5438 67.3571 17.6343 67.4863 17.7519C67.6045 17.8757 67.6961 18.0223 67.7554 18.1828C67.8148 18.3433 67.8407 18.5143 67.8315 18.6851C67.8208 18.8718 67.7164 19.4361 67.5185 20.378L66.1519 26.6957H69.1582L70.5129 20.3983C70.7055 19.6718 70.8348 18.9299 70.8994 18.1811C70.9169 17.7924 70.8552 17.4043 70.7181 17.0402C70.5811 16.6762 70.3714 16.3438 70.1019 16.0632C69.8116 15.7885 69.4682 15.5758 69.0929 15.4382C68.7176 15.3006 68.3181 15.241 67.919 15.263C67.2422 15.2613 66.5722 15.3983 65.9503 15.6656C65.2145 16.0065 64.5356 16.4587 63.9375 17.0063L64.2252 15.5431H61.3513L59.0214 26.6999ZM81.9421 22.0582H74.3705C74.3642 22.178 74.3621 22.2718 74.3621 22.3341C74.3313 22.9986 74.562 23.6488 75.0048 24.1452C75.2005 24.3648 75.4411 24.5398 75.7104 24.6583C75.9796 24.7768 76.2712 24.836 76.5653 24.8321C77.0664 24.8287 77.5559 24.6805 77.9747 24.4054C78.3936 24.1303 78.724 23.7399 78.9261 23.2813L81.6145 23.735C81.1616 24.7328 80.4288 25.5777 79.505 26.1671C78.6143 26.7127 77.5873 26.9945 76.5429 26.98C75.8672 27.006 75.1934 26.8929 74.5632 26.6475C73.9331 26.4022 73.3602 26.0299 72.8799 25.5539C72.4029 25.0515 72.0322 24.4581 71.7901 23.8091C71.5479 23.16 71.4392 22.4688 71.4706 21.7768C71.449 20.314 71.8941 18.8823 72.7413 17.6896C73.2954 16.9019 74.0394 16.2669 74.9043 15.8433C75.7692 15.4197 76.727 15.2214 77.689 15.2665C78.2907 15.2377 78.8917 15.3361 79.4529 15.5551C80.0141 15.7742 80.5228 16.1091 80.9459 16.5379C81.7986 17.5174 82.2315 18.7933 82.1507 20.0895C82.1595 20.7517 82.0895 21.4126 81.9421 22.0582ZM79.4007 20.2324C79.4084 20.0965 79.4112 19.995 79.4112 19.925C79.462 19.2504 79.2626 18.5808 78.8511 18.0438C78.6645 17.8359 78.4341 17.6719 78.1765 17.5637C77.9189 17.4554 77.6405 17.4057 77.3613 17.4179C77.0481 17.419 76.7383 17.4824 76.4498 17.6044C76.1613 17.7264 75.9 17.9046 75.6811 18.1285C75.1374 18.708 74.7868 19.4418 74.6778 20.2289L79.4007 20.2324ZM46.0218 6.60832L49.2038 6.32127C49.2381 6.32127 44.4431 25.8276 44.4431 27.6892C43.5329 33.0968 46.6176 35.8713 53.6481 36.2732C54.2396 36.2732 54.7437 36.2767 55.1743 36.2795C74.5553 34.7105 88.6953 28.2129 88.6953 19.7479C88.6953 11.7982 74.4755 5.49515 56.3505 3.58876L56.8636 1.1818C75.6671 3.37663 91.0253 10.5828 91.0253 19.7479C91.0253 28.4845 78.3254 35.3042 60.8507 37.8246C60.8507 37.8127 59.2237 38.0227 57.8445 38.1747C46.5966 39.4551 39.2805 36.068 41.6167 25.4082L46.0218 6.60832ZM50.947 31.7883C48.7459 30.3881 49.5335 27.6367 50.4458 23.4374L55.0399 1.10409C51.9251 0.83175 48.9735 0.614014 45.6662 0.614014C20.8726 0.614014 0.310547 8.63232 0.310547 19.7486C0.310547 30.8649 20.8719 38.8804 45.6662 38.8804H46.5637C45.4813 38.7207 45.4498 38.5961 44.2302 37.9478C43.578 37.5511 42.9681 37.0887 42.41 36.5679C19.457 36.0967 2.6398 29.2357 2.6398 19.7493C2.6398 10.1172 21.3123 3.12039 45.5821 3.12039C47.7742 3.12039 49.3627 3.29472 51.4518 3.40534L46.4111 26.7258C45.662 30.9965 47.854 33.8382 51.8957 34.6762C52.8925 34.8189 53.8995 34.8784 54.9061 34.8541C56.8069 34.8912 60.4027 34.4893 60.3922 34.4893L60.9039 32.4303C56.3211 33.0114 52.8177 32.982 50.947 31.7883Z" fill="#868786"/>
<g id="Group 1657">
<path id="Vector_2" fill-rule="evenodd" clip-rule="evenodd" d="M3.95824 46.8367V47.4522H1.04141V52.7978H0.310059V46.8367H3.95824Z" fill="#868786"/>
<path id="Vector_3" fill-rule="evenodd" clip-rule="evenodd" d="M7.73152 46.7424C7.32027 46.7287 6.91602 46.8514 6.58175 47.0913C6.24747 47.3313 6.00192 47.675 5.88334 48.069H5.84914V46.8364H5.14966L5.19707 47.9851V55.3413H5.92997V52.2978L5.90665 51.7304H5.94007C6.09969 52.0717 6.3518 52.3614 6.66777 52.5667C6.98374 52.7719 7.35092 52.8845 7.72763 52.8916C9.04887 52.8916 10.2924 51.9955 10.2924 49.8115C10.2986 47.9284 9.38074 46.7424 7.73152 46.7424ZM7.73152 52.2737C7.03204 52.2737 5.93075 51.7048 5.93075 49.8108C5.93075 47.94 7.03437 47.3595 7.73152 47.3595C8.42867 47.3595 9.5323 47.9393 9.5323 49.8108C9.5323 51.7056 8.42789 52.2768 7.73152 52.2768V52.2737Z" fill="#868786"/>
<path id="Vector_4" fill-rule="evenodd" clip-rule="evenodd" d="M11.5723 54.6001C11.7399 54.6454 11.9102 54.6799 12.0822 54.7034C12.5943 54.7034 12.8392 54.3925 13.0358 53.7708L13.2915 52.9936L11.1433 46.8335H11.9205L13.4889 51.3778L13.6739 51.9708H13.6855L13.8721 51.3894L15.3829 46.8335H16.1376L13.593 54.1392C13.349 54.8239 12.9767 55.3477 12.1521 55.3477C11.9315 55.3394 11.7128 55.3038 11.5008 55.242L11.5723 54.6001Z" fill="#868786"/>
<path id="Vector_5" fill-rule="evenodd" clip-rule="evenodd" d="M22.0934 46.8367V52.7978H21.3613V47.4522H18.2471V52.7978H17.5142V46.8367H22.0934Z" fill="#868786"/>
<path id="Vector_6" fill-rule="evenodd" clip-rule="evenodd" d="M28.6188 46.8367V52.7978H27.8851V47.4522H24.7709V52.7978H24.0396V46.8367H28.6188Z" fill="#868786"/>
<path id="Vector_7" fill-rule="evenodd" clip-rule="evenodd" d="M34.699 52.7977L34.6632 51.4951V48.963C34.6632 48.1493 34.4883 46.7425 32.5609 46.7425C31.9479 46.7384 31.3413 46.8659 30.7819 47.1164V47.8119C31.328 47.5156 31.9395 47.3604 32.5609 47.3604C33.9186 47.3604 33.9303 48.534 33.9303 48.9506V49.1588H33.5471C32.3386 49.1588 30.1313 49.2529 30.1313 51.2044C30.1337 51.4486 30.188 51.6894 30.2907 51.9109C30.3934 52.1323 30.5421 52.3294 30.7268 52.489C30.9116 52.6485 31.1283 52.7669 31.3623 52.8362C31.5964 52.9055 31.8426 52.9242 32.0844 52.891C32.4803 52.9135 32.8742 52.8213 33.2188 52.6254C33.5635 52.4294 33.8443 52.1382 34.0274 51.7866H34.0508V52.7969L34.699 52.7977ZM33.9303 50.2065C33.9303 51.5083 33.2106 52.2746 32.072 52.2746C31.9209 52.2824 31.7697 52.2594 31.6278 52.207C31.4858 52.1545 31.356 52.0738 31.2462 51.9696C31.1365 51.8654 31.049 51.74 30.9892 51.601C30.9294 51.462 30.8986 51.3122 30.8984 51.1609C30.8984 49.964 32.1762 49.7759 33.2689 49.7759H33.9303V50.2065Z" fill="#868786"/>
<path id="Vector_8" fill-rule="evenodd" clip-rule="evenodd" d="M39.8781 46.8367V49.4628H39.9131L42.6434 46.8367H43.5854L40.6577 49.6136L43.8994 52.8001H42.8657L39.9123 49.8468H39.8773V52.8001H39.146V46.839L39.8781 46.8367Z" fill="#868786"/>
<path id="Vector_9" fill-rule="evenodd" clip-rule="evenodd" d="M47.0772 46.7424C45.4132 46.7424 44.3228 47.9634 44.3228 49.824C44.3228 51.6707 45.4272 52.8916 47.0772 52.8916C48.7272 52.8916 49.8308 51.6707 49.8308 49.824C49.8316 47.9634 48.7388 46.7424 47.0772 46.7424ZM47.0772 52.2738C45.6782 52.2738 45.0891 50.9735 45.0891 49.824C45.0891 48.6582 45.6821 47.3603 47.0772 47.3603C48.4722 47.3603 49.0645 48.6606 49.0645 49.824C49.0645 50.9735 48.4715 52.2769 47.0772 52.2769V52.2738Z" fill="#868786"/>
<path id="Vector_10" fill-rule="evenodd" clip-rule="evenodd" d="M54.3634 51.241L54.5966 52.0407H54.644L54.9813 51.241L56.9119 46.8358H57.8282V52.7969H57.0922V48.5558L57.1505 47.5905H57.1163L56.7914 48.5558L54.9316 52.7969H54.3052L52.492 48.5558L52.1313 47.5905H52.0964L52.1539 48.5558V52.7969H51.4241V46.8358H52.457L54.3634 51.241Z" fill="#868786"/>
<path id="Vector_11" fill-rule="evenodd" clip-rule="evenodd" d="M64.3581 46.8367V52.7978H63.6252V47.4522H60.5109V52.7978H59.7788V46.8367H64.3581Z" fill="#868786"/>
<path id="Vector_12" fill-rule="evenodd" clip-rule="evenodd" d="M70.4391 52.7977L70.4033 51.4951V48.963C70.4033 48.1493 70.2292 46.7425 68.301 46.7425C67.6883 46.7383 67.0819 46.8658 66.5228 47.1164V47.812C67.0687 47.5158 67.6799 47.3606 68.301 47.3604C69.6603 47.3604 69.6704 48.534 69.6704 48.9506V49.1588H69.2873C68.0787 49.1588 65.873 49.2529 65.873 51.2044C65.8752 51.4485 65.9293 51.6893 66.0318 51.9108C66.1343 52.1323 66.2829 52.3294 66.4675 52.4889C66.6522 52.6485 66.8687 52.7669 67.1027 52.8362C67.3367 52.9056 67.5828 52.9242 67.8246 52.891C68.2205 52.9138 68.6145 52.8217 68.9592 52.6258C69.3039 52.4298 69.5847 52.1384 69.7676 51.7866H69.7925V52.7969L70.4391 52.7977ZM69.6704 50.2065C69.6704 51.5083 68.9508 52.2746 67.8122 52.2746C67.6609 52.2827 67.5096 52.2598 67.3675 52.2075C67.2253 52.1551 67.0953 52.0744 66.9854 51.9702C66.8754 51.866 66.7878 51.7405 66.728 51.6014C66.6681 51.4623 66.6371 51.3124 66.637 51.1609C66.637 49.964 67.9163 49.7759 69.0098 49.7759H69.6704V50.2065Z" fill="#868786"/>
<path id="Vector_13" fill-rule="evenodd" clip-rule="evenodd" d="M73.0824 46.8367V49.3929H76.3125V46.8367H77.0454V52.7978H76.3125V50.0084H73.0824V52.7978H72.3511V46.8367H73.0824Z" fill="#868786"/>
<path id="Vector_14" fill-rule="evenodd" clip-rule="evenodd" d="M79.7258 46.8367V51.2045L79.7134 51.8325H79.7491L80.144 51.1944L83.2224 46.8367H84.0362V52.7978H83.3048V48.4299L83.3157 47.802H83.28L82.8867 48.4299L79.8066 52.7978H78.9929V46.8367H79.7258Z" fill="#868786"/>
<path id="Vector_15" fill-rule="evenodd" clip-rule="evenodd" d="M86.7153 46.8367V51.2045L86.7052 51.8325H86.7402L87.135 51.1944L90.2151 46.8367H91.0249V52.7978H90.2936V48.4299L90.3052 47.802H90.2695L89.8746 48.4299L86.7946 52.7978H85.9824V46.8367H86.7153Z" fill="#868786"/>
<path id="Vector_16" fill-rule="evenodd" clip-rule="evenodd" d="M87.1593 43.2567C87.3181 43.4628 87.5222 43.6297 87.7557 43.7446C87.9892 43.8594 88.2459 43.9191 88.5061 43.9191C88.7664 43.9191 89.0231 43.8594 89.2566 43.7446C89.4902 43.6297 89.6942 43.4628 89.853 43.2567L90.2028 43.6663C90.0158 43.9444 89.7633 44.1723 89.4675 44.3298C89.1717 44.4874 88.8417 44.5698 88.5065 44.5698C88.1714 44.5698 87.8414 44.4874 87.5456 44.3298C87.2498 44.1723 86.9973 43.9444 86.8103 43.6663L87.1593 43.2567Z" fill="#868786"/>
</g>
</g>
</svg>
