<svg width="197" height="56" viewBox="0 0 197 56" fill="none" xmlns="http://www.w3.org/2000/svg">
<path fill-rule="evenodd" clip-rule="evenodd" d="M114.182 26.6999L117.403 11.313H122.672C123.472 11.2961 124.273 11.3317 125.068 11.4194C125.745 11.4992 126.4 11.7134 126.993 12.0495C127.504 12.3478 127.92 12.7848 128.193 13.3097C128.468 13.8485 128.608 14.446 128.602 15.0509C128.62 15.8502 128.369 16.6324 127.89 17.2723C127.319 17.9618 126.55 18.4582 125.686 18.6935C126.41 18.871 127.057 19.2783 127.53 19.8543C127.963 20.3863 128.198 21.0527 128.194 21.739C128.191 22.6731 127.917 23.5862 127.406 24.3679C126.895 25.185 126.132 25.8129 125.231 26.1559C124.011 26.5652 122.726 26.7498 121.439 26.7006L114.182 26.6999ZM119.265 17.5237H121.685C122.475 17.5572 123.265 17.4804 124.033 17.2954C124.466 17.1731 124.845 16.9076 125.107 16.5421C125.339 16.2145 125.465 15.8234 125.468 15.4219C125.482 15.0698 125.36 14.7258 125.129 14.46C124.873 14.1915 124.536 14.0144 124.169 13.9559C123.611 13.8993 123.05 13.8782 122.489 13.8929H120.025L119.265 17.5237ZM117.86 24.2307H120.921C121.79 24.2774 122.662 24.1937 123.506 23.9821C123.931 23.826 124.298 23.5424 124.556 23.17C124.808 22.822 124.945 22.4039 124.948 21.9742C124.954 21.7348 124.906 21.4972 124.809 21.2785C124.711 21.0599 124.566 20.8656 124.384 20.7098C123.832 20.3276 123.163 20.1512 122.494 20.2114H118.701L117.86 24.2307ZM131.916 11.313H134.926L134.356 14.0434H131.345L131.916 11.313ZM131.027 15.5473H134.038L131.703 26.6999H128.693L131.027 15.5473ZM134.088 22.0722C133.995 20.2554 134.622 18.4752 135.833 17.1176C136.423 16.5017 137.136 16.0182 137.927 15.6992C138.718 15.3802 139.567 15.2329 140.419 15.2672C141.119 15.2261 141.82 15.3257 142.481 15.5602C143.142 15.7947 143.749 16.1593 144.266 16.6324C144.737 17.1164 145.102 17.6919 145.34 18.3233C145.579 18.9547 145.684 19.6284 145.65 20.3024C145.681 22.0296 145.064 23.7056 143.921 25.0008C143.344 25.6552 142.629 26.1726 141.828 26.515C141.026 26.8575 140.158 27.0163 139.287 26.98C138.32 27.0006 137.363 26.7843 136.499 26.3499C135.72 25.962 135.085 25.3353 134.688 24.5611C134.288 23.7925 134.082 22.9383 134.088 22.0722ZM142.662 19.9075C142.693 19.271 142.47 18.6484 142.042 18.1762C141.835 17.9603 141.584 17.7906 141.307 17.6783C141.029 17.566 140.731 17.5135 140.432 17.5244C139.802 17.5183 139.191 17.7342 138.705 18.1341C138.159 18.6036 137.754 19.2146 137.534 19.8998C137.272 20.5818 137.13 21.304 137.114 22.0344C137.077 22.7326 137.308 23.4185 137.761 23.9513C137.966 24.1809 138.218 24.3632 138.5 24.4858C138.782 24.6084 139.088 24.6682 139.395 24.6612C139.801 24.661 140.2 24.5638 140.561 24.3775C140.921 24.1913 141.232 23.9215 141.467 23.5908C142.278 22.5378 142.701 21.2365 142.662 19.9075ZM162.256 11.313H165.267L164.695 14.0434H161.684L162.256 11.313ZM161.369 15.5473H164.38L162.042 26.6999H159.032L161.369 15.5473ZM164.021 26.6999H167.032L167.975 22.1226C168.133 21.2052 168.396 20.309 168.759 19.4517C169.054 18.8587 169.495 18.3504 170.04 17.9745C170.468 17.6434 170.986 17.4483 171.526 17.4144C171.701 17.4036 171.876 17.4279 172.041 17.4858C172.205 17.5438 172.357 17.6343 172.486 17.7519C172.604 17.8757 172.696 18.0223 172.755 18.1828C172.815 18.3433 172.841 18.5143 172.831 18.6851C172.821 18.8718 172.716 19.4361 172.518 20.378L171.152 26.6957H174.158L175.513 20.3983C175.705 19.6718 175.835 18.9299 175.899 18.1811C175.917 17.7924 175.855 17.4043 175.718 17.0402C175.581 16.6762 175.371 16.3438 175.102 16.0632C174.811 15.7885 174.468 15.5758 174.093 15.4382C173.717 15.3006 173.318 15.241 172.919 15.263C172.242 15.2613 171.572 15.3983 170.95 15.6656C170.214 16.0065 169.535 16.4587 168.937 17.0063L169.225 15.5431H166.351L164.021 26.6999ZM186.942 22.0582H179.37C179.364 22.178 179.362 22.2718 179.362 22.3341C179.331 22.9986 179.562 23.6488 180.005 24.1452C180.2 24.3648 180.441 24.5398 180.71 24.6583C180.979 24.7768 181.271 24.836 181.565 24.8321C182.066 24.8287 182.556 24.6805 182.975 24.4054C183.393 24.1303 183.724 23.7399 183.926 23.2813L186.614 23.735C186.161 24.7328 185.429 25.5777 184.505 26.1671C183.614 26.7127 182.587 26.9945 181.543 26.98C180.867 27.006 180.193 26.8929 179.563 26.6475C178.933 26.4022 178.36 26.0299 177.88 25.5539C177.403 25.0515 177.032 24.4581 176.79 23.8091C176.548 23.16 176.439 22.4688 176.471 21.7768C176.449 20.314 176.894 18.8823 177.741 17.6896C178.295 16.9019 179.039 16.2669 179.904 15.8433C180.769 15.4197 181.727 15.2214 182.689 15.2665C183.291 15.2377 183.892 15.3361 184.453 15.5551C185.014 15.7742 185.523 16.1091 185.946 16.5379C186.798 17.5174 187.231 18.7933 187.151 20.0895C187.159 20.7517 187.089 21.4126 186.942 22.0582ZM184.401 20.2324C184.408 20.0965 184.411 19.995 184.411 19.925C184.462 19.2504 184.262 18.5808 183.851 18.0438C183.664 17.8359 183.434 17.6719 183.176 17.5637C182.919 17.4554 182.64 17.4057 182.361 17.4179C182.048 17.419 181.738 17.4824 181.45 17.6044C181.161 17.7264 180.9 17.9046 180.681 18.1285C180.137 18.708 179.787 19.4418 179.678 20.2289L184.401 20.2324ZM151.022 6.60832L154.204 6.32127C154.238 6.32127 149.443 25.8276 149.443 27.6892C148.533 33.0968 151.617 35.8713 158.648 36.2732C159.24 36.2732 159.744 36.2767 160.174 36.2795C179.555 34.7105 193.695 28.2129 193.695 19.7479C193.695 11.7982 179.475 5.49515 161.35 3.58876L161.864 1.1818C180.667 3.37663 196.025 10.5828 196.025 19.7479C196.025 28.4845 183.325 35.3042 165.851 37.8246C165.851 37.8127 164.224 38.0227 162.844 38.1747C151.596 39.4551 144.28 36.068 146.617 25.4082L151.022 6.60832ZM155.947 31.7883C153.746 30.3881 154.533 27.6367 155.446 23.4374L160.04 1.10409C156.925 0.83175 153.973 0.614014 150.666 0.614014C125.873 0.614014 105.31 8.63232 105.31 19.7486C105.31 30.8649 125.872 38.8804 150.666 38.8804H151.564C150.481 38.7207 150.45 38.5961 149.23 37.9478C148.578 37.5511 147.968 37.0887 147.41 36.5679C124.457 36.0967 107.64 29.2357 107.64 19.7493C107.64 10.1172 126.312 3.12039 150.582 3.12039C152.774 3.12039 154.363 3.29472 156.452 3.40534L151.411 26.7258C150.662 30.9965 152.854 33.8382 156.896 34.6762C157.892 34.8189 158.899 34.8784 159.906 34.8541C161.807 34.8912 165.403 34.4893 165.392 34.4893L165.904 32.4303C161.321 33.0114 157.818 32.982 155.947 31.7883Z" fill="#868786"/>
<path fill-rule="evenodd" clip-rule="evenodd" d="M108.958 46.8367V47.4522H106.041V52.7978H105.31V46.8367H108.958Z" fill="#868786"/>
<path fill-rule="evenodd" clip-rule="evenodd" d="M112.732 46.7424C112.32 46.7287 111.916 46.8514 111.582 47.0913C111.248 47.3313 111.002 47.675 110.883 48.069H110.849V46.8364H110.15L110.197 47.9851V55.3413H110.93V52.2978L110.907 51.7304H110.94C111.1 52.0717 111.352 52.3614 111.668 52.5667C111.984 52.7719 112.351 52.8845 112.728 52.8916C114.049 52.8916 115.293 51.9955 115.293 49.8115C115.299 47.9284 114.381 46.7424 112.732 46.7424ZM112.732 52.2737C112.032 52.2737 110.931 51.7048 110.931 49.8108C110.931 47.94 112.034 47.3595 112.732 47.3595C113.429 47.3595 114.532 47.9393 114.532 49.8108C114.532 51.7056 113.428 52.2768 112.732 52.2768V52.2737Z" fill="#868786"/>
<path fill-rule="evenodd" clip-rule="evenodd" d="M116.572 54.6001C116.74 54.6454 116.91 54.6799 117.082 54.7034C117.594 54.7034 117.839 54.3925 118.036 53.7708L118.292 52.9936L116.143 46.8335H116.921L118.489 51.3778L118.674 51.9708H118.686L118.872 51.3894L120.383 46.8335H121.138L118.593 54.1392C118.349 54.8239 117.977 55.3477 117.152 55.3477C116.932 55.3394 116.713 55.3038 116.501 55.242L116.572 54.6001Z" fill="#868786"/>
<path fill-rule="evenodd" clip-rule="evenodd" d="M127.094 46.8367V52.7978H126.361V47.4522H123.247V52.7978H122.514V46.8367H127.094Z" fill="#868786"/>
<path fill-rule="evenodd" clip-rule="evenodd" d="M133.619 46.8367V52.7978H132.885V47.4522H129.771V52.7978H129.04V46.8367H133.619Z" fill="#868786"/>
<path fill-rule="evenodd" clip-rule="evenodd" d="M139.699 52.7977L139.663 51.4951V48.963C139.663 48.1493 139.488 46.7425 137.561 46.7425C136.948 46.7384 136.341 46.8659 135.782 47.1164V47.8119C136.328 47.5156 136.94 47.3604 137.561 47.3604C138.919 47.3604 138.93 48.534 138.93 48.9506V49.1588H138.547C137.339 49.1588 135.131 49.2529 135.131 51.2044C135.134 51.4486 135.188 51.6894 135.291 51.9109C135.393 52.1323 135.542 52.3294 135.727 52.489C135.912 52.6485 136.128 52.7669 136.362 52.8362C136.596 52.9055 136.843 52.9242 137.084 52.891C137.48 52.9135 137.874 52.8213 138.219 52.6254C138.564 52.4294 138.844 52.1382 139.027 51.7866H139.051V52.7969L139.699 52.7977ZM138.93 50.2065C138.93 51.5083 138.211 52.2746 137.072 52.2746C136.921 52.2824 136.77 52.2594 136.628 52.207C136.486 52.1545 136.356 52.0738 136.246 51.9696C136.136 51.8654 136.049 51.74 135.989 51.601C135.929 51.462 135.899 51.3122 135.898 51.1609C135.898 49.964 137.176 49.7759 138.269 49.7759H138.93V50.2065Z" fill="#868786"/>
<path fill-rule="evenodd" clip-rule="evenodd" d="M144.878 46.8367V49.4628H144.913L147.643 46.8367H148.585L145.658 49.6136L148.899 52.8001H147.866L144.912 49.8468H144.877V52.8001H144.146V46.839L144.878 46.8367Z" fill="#868786"/>
<path fill-rule="evenodd" clip-rule="evenodd" d="M152.077 46.7424C150.413 46.7424 149.323 47.9634 149.323 49.824C149.323 51.6707 150.427 52.8916 152.077 52.8916C153.727 52.8916 154.831 51.6707 154.831 49.824C154.832 47.9634 153.739 46.7424 152.077 46.7424ZM152.077 52.2738C150.678 52.2738 150.089 50.9735 150.089 49.824C150.089 48.6582 150.682 47.3603 152.077 47.3603C153.472 47.3603 154.065 48.6606 154.065 49.824C154.065 50.9735 153.472 52.2769 152.077 52.2769V52.2738Z" fill="#868786"/>
<path fill-rule="evenodd" clip-rule="evenodd" d="M159.364 51.241L159.597 52.0407H159.644L159.981 51.241L161.912 46.8358H162.828V52.7969H162.092V48.5558L162.151 47.5905H162.116L161.792 48.5558L159.932 52.7969H159.305L157.492 48.5558L157.131 47.5905H157.096L157.154 48.5558V52.7969H156.424V46.8358H157.457L159.364 51.241Z" fill="#868786"/>
<path fill-rule="evenodd" clip-rule="evenodd" d="M169.358 46.8367V52.7978H168.625V47.4522H165.511V52.7978H164.779V46.8367H169.358Z" fill="#868786"/>
<path fill-rule="evenodd" clip-rule="evenodd" d="M175.439 52.7977L175.403 51.4951V48.963C175.403 48.1493 175.229 46.7425 173.301 46.7425C172.688 46.7383 172.082 46.8658 171.523 47.1164V47.812C172.069 47.5158 172.68 47.3606 173.301 47.3604C174.66 47.3604 174.67 48.534 174.67 48.9506V49.1588H174.287C173.079 49.1588 170.873 49.2529 170.873 51.2044C170.875 51.4485 170.929 51.6893 171.032 51.9108C171.134 52.1323 171.283 52.3294 171.468 52.4889C171.652 52.6485 171.869 52.7669 172.103 52.8362C172.337 52.9056 172.583 52.9242 172.825 52.891C173.22 52.9138 173.614 52.8217 173.959 52.6258C174.304 52.4298 174.585 52.1384 174.768 51.7866H174.792V52.7969L175.439 52.7977ZM174.67 50.2065C174.67 51.5083 173.951 52.2746 172.812 52.2746C172.661 52.2827 172.51 52.2598 172.367 52.2075C172.225 52.1551 172.095 52.0744 171.985 51.9702C171.875 51.866 171.788 51.7405 171.728 51.6014C171.668 51.4623 171.637 51.3124 171.637 51.1609C171.637 49.964 172.916 49.7759 174.01 49.7759H174.67V50.2065Z" fill="#868786"/>
<path fill-rule="evenodd" clip-rule="evenodd" d="M178.083 46.8367V49.3929H181.313V46.8367H182.045V52.7978H181.313V50.0084H178.083V52.7978H177.351V46.8367H178.083Z" fill="#868786"/>
<path fill-rule="evenodd" clip-rule="evenodd" d="M184.726 46.8367V51.2045L184.714 51.8325H184.749L185.144 51.1944L188.223 46.8367H189.036V52.7978H188.305V48.4299L188.316 47.802H188.28L187.887 48.4299L184.807 52.7978H183.993V46.8367H184.726Z" fill="#868786"/>
<path fill-rule="evenodd" clip-rule="evenodd" d="M191.715 46.8367V51.2045L191.705 51.8325H191.74L192.135 51.1944L195.215 46.8367H196.025V52.7978H195.294V48.4299L195.305 47.802H195.269L194.875 48.4299L191.795 52.7978H190.982V46.8367H191.715Z" fill="#868786"/>
<path fill-rule="evenodd" clip-rule="evenodd" d="M192.159 43.2567C192.318 43.4628 192.522 43.6297 192.756 43.7446C192.989 43.8594 193.246 43.9191 193.506 43.9191C193.766 43.9191 194.023 43.8594 194.257 43.7446C194.49 43.6297 194.694 43.4628 194.853 43.2567L195.203 43.6663C195.016 43.9444 194.763 44.1723 194.468 44.3298C194.172 44.4874 193.842 44.5698 193.507 44.5698C193.172 44.5698 192.842 44.4874 192.546 44.3298C192.25 44.1723 191.997 43.9444 191.81 43.6663L192.159 43.2567Z" fill="#868786"/>
<g clip-path="url(#clip0_215_9)">
<path d="M50.7056 11.0921C50.9101 11.4065 51.027 11.7703 51.0441 12.1455C51.0611 12.5208 50.9776 12.8938 50.8024 13.2256C50.0808 14.5357 48.444 14.8279 47.0888 14.7305C46.6061 14.7136 46.1327 14.5917 45.7013 14.3731C45.2698 14.1546 44.8906 13.8447 44.5896 13.4646C44.3651 13.1004 44.2462 12.6803 44.2462 12.2518C44.2462 11.8233 44.3651 11.4032 44.5896 11.039C45.0048 10.5221 45.551 10.1276 46.1705 9.89698C46.7901 9.66639 47.46 9.6083 48.1096 9.72886C49.1103 9.85274 50.0325 10.337 50.7056 11.0921Z" fill="#E4001D"/>
<path d="M84.5416 26.699C83.6616 27.1859 82.3768 27.9118 81.3648 27.1416C81.1451 26.8677 81.0408 26.5181 81.0744 26.1678L83.5296 17.3951C81.7696 17.3419 79.9128 17.2977 78.0824 17.3419L77.6512 18.7052C77.4016 18.3432 77.1057 18.0158 76.7712 17.7314C74.8968 16.377 72.1952 16.8462 70.2152 17.6341C67.232 19.0947 64.8736 21.8567 64.8208 25.3446C63.2368 26.7521 61.1688 28.3278 58.8984 27.4426C57.7896 26.8141 57.8424 25.3092 58.0184 24.1406C58.3528 22.2993 58.8984 20.2633 60.764 19.44C61.9696 18.9088 63.1224 19.679 63.9936 20.458C64.2669 19.6307 64.4931 18.7883 64.6712 17.9351C62.2072 16.3328 58.4056 16.8196 55.9944 18.2272C53.5832 19.6347 51.3656 22.3524 51.5944 25.5482C51.1477 25.9735 50.6441 26.334 50.0984 26.6193C49.28 27 48.0744 27.6816 47.2032 26.8583C47.0239 26.5508 46.9411 26.196 46.9656 25.8403C47.74 22.981 48.5584 20.0685 49.324 17.2092C47.3 17.2092 45.1792 17.156 43.252 17.2623L41.0344 24.9196C39.4014 26.0171 37.5909 26.8199 35.684 27.2921C33.8536 27.7347 31.4952 28.1154 29.9552 26.8583C29.7416 26.6087 29.5903 26.3114 29.5138 25.9912C29.4372 25.671 29.4377 25.337 29.5152 25.017C32.7448 25.3092 36.2648 24.8665 38.3152 22.4941C38.6604 22.0183 38.8883 21.4668 38.9801 20.885C39.0719 20.3032 39.025 19.7078 38.8432 19.1478L38.368 18.3688C35.86 16.0937 31.4248 16.5983 28.4856 17.696C27.0028 18.2668 25.7156 19.2564 24.7789 20.5458C23.8421 21.8352 23.2958 23.3694 23.2056 24.9639C23.2619 25.846 23.5319 26.7008 23.9921 27.4538C24.4523 28.2068 25.0886 28.8351 25.8456 29.2839C30.6152 32.0901 36.5464 29.8151 40.8056 27.5134C40.8056 27.5134 40.9464 27.6108 40.9024 27.6551C41.0518 28.3407 41.3876 28.9712 41.8724 29.4761C42.3572 29.981 42.9719 30.3404 43.648 30.5144C46.9304 31.0013 49.8696 29.6292 52.3248 27.6551C53.3368 29.5495 55.5104 30.5144 57.6752 30.7092V30.6649C60.6672 30.7623 63.1752 29.3547 65.34 27.5134C66.0001 28.8311 67.1133 29.8629 68.4728 30.417C69.6954 30.7928 70.9967 30.8265 72.237 30.5146C73.4773 30.2026 74.6097 29.5569 75.5128 28.6465C75.8176 29.3409 76.3197 29.9292 76.956 30.3374C79.8072 31.7006 82.8432 30.001 85.008 28.5669C84.9564 27.9225 84.7988 27.2913 84.5416 26.699ZM32.252 18.8026C33.0176 18.5105 34.364 18.2183 34.7512 19.2364C34.8518 19.869 34.775 20.5174 34.5294 21.1085C34.2837 21.6997 33.879 22.2102 33.3608 22.5826C32.2984 23.2047 31.0511 23.4274 29.8408 23.2111C30.3688 21.6088 30.8528 19.8649 32.252 18.8026ZM75.4776 25.4951C75.2754 26.0601 74.9438 26.5694 74.5096 26.9816C74.0754 27.3937 73.5509 27.6972 72.9784 27.8675C72.6725 27.9022 72.3629 27.8531 72.0826 27.7253C71.8022 27.5975 71.5613 27.3958 71.3856 27.1416C70.664 25.1498 71.676 23.2111 72.2656 21.4141C72.7392 20.4258 73.5609 19.6497 74.5712 19.2364C74.9309 19.1684 75.3026 19.2106 75.6383 19.3573C75.974 19.5041 76.2583 19.7487 76.4544 20.0596C77.1232 21.9983 75.9176 23.7423 75.4776 25.4951Z" fill="#E4001D"/>
<path d="M85.7999 32.037C80.8724 33.2008 75.8754 34.0435 70.8399 34.56C60.8147 35.3017 50.7514 35.3667 40.7175 34.7547C32.6569 34.119 24.6977 32.5385 17.0015 30.0452C19.5095 26.3626 20.4247 21.9541 21.7799 17.6518C23.9372 17.3106 25.9914 16.4889 27.7925 15.2468C29.5936 14.0047 31.0961 12.3735 32.1903 10.4724C33.2463 8.29471 34.3111 5.42651 33.0703 2.95667C32.6501 2.24805 32.09 1.63347 31.4247 1.15077C28.9695 -0.451525 25.5199 0.185852 23.2319 1.68192C17.8375 4.54126 17.0191 10.6583 15.4703 15.8459C13.8853 15.7826 12.3148 15.5148 10.7975 15.0491C10.4969 15.5769 10.2858 16.1513 10.1727 16.7488C11.7062 17.3635 13.3175 17.7598 14.9599 17.9262C14.2545 20.9138 13.3339 23.8458 12.2055 26.699C11.8711 27.2832 11.8271 28.1065 11.2463 28.5491C8.21034 27.8232 4.25914 26.7786 1.36394 28.5491C0.91931 28.8628 0.560979 29.2847 0.322441 29.7754C0.0839038 30.2662 -0.0270523 30.8098 -5.64288e-05 31.3554C0.0886086 32.0669 0.356696 32.7438 0.778723 33.3218C1.20075 33.8997 1.76269 34.3594 2.41114 34.6573C6.51194 36.6403 11.4399 35.2416 14.8455 32.7541C17.4855 33.6393 20.0023 34.5954 22.6599 35.4098C30.7999 37.5875 39.1863 39.5262 48.1799 39.2429V39.2872C60.9879 39.1523 73.7291 37.4097 86.1079 34.0996L86.3015 33.958L85.7999 32.037ZM25.5991 5.17864C26.2239 4.16061 27.1831 2.94782 28.5383 2.85044C29.1191 2.85044 29.6911 2.85044 30.1311 3.33733C31.4247 4.59438 31.0111 6.87831 30.4127 8.37438C29.704 10.1014 28.6022 11.6371 27.1961 12.8578C25.79 14.0786 24.1187 14.9504 22.3167 15.4032C22.9872 11.8718 24.0897 8.43749 25.5991 5.17864ZM3.57274 32.7541C3.18554 32.5062 2.69274 32.1167 2.69274 31.5855C2.70808 31.3595 2.77675 31.1404 2.89306 30.9465C3.00937 30.7525 3.16997 30.5892 3.36154 30.4701C5.28874 29.4521 7.50634 30.5232 9.38954 31.0544L9.72394 31.2049C8.19274 32.5681 5.79034 33.6393 3.57274 32.7541Z" fill="#E4001D"/>
<path d="M10.7888 53.522V47.3253H12.6984C13.227 47.2868 13.7517 47.4407 14.1768 47.759C14.3505 47.9198 14.4858 48.1179 14.5727 48.3387C14.6595 48.5594 14.6957 48.797 14.6784 49.0338C14.685 49.3198 14.6119 49.6019 14.4672 49.8482C14.3342 50.0708 14.1337 50.2446 13.8952 50.344C14.1636 50.4172 14.3936 50.5916 14.5376 50.8308C14.6987 51.0969 14.7783 51.4048 14.7664 51.7161C14.7846 51.9654 14.7501 52.2158 14.6652 52.4508C14.5802 52.6858 14.4468 52.9 14.2736 53.0794C13.8725 53.4142 13.3594 53.5821 12.8392 53.5485L10.7888 53.522ZM12.0384 49.8925H12.6896C12.7908 49.9046 12.8933 49.8931 12.9893 49.8587C13.0853 49.8243 13.172 49.768 13.2428 49.6943C13.3135 49.6206 13.3663 49.5313 13.3971 49.4336C13.4278 49.336 13.4357 49.2324 13.42 49.1312C13.4411 48.9138 13.3816 48.6962 13.2528 48.5203C13.1781 48.4526 13.0903 48.4012 12.9949 48.3692C12.8995 48.3372 12.7986 48.3254 12.6984 48.3344H12.0384V49.8925ZM12.0384 50.7777V52.442H12.8392C12.9346 52.447 13.03 52.4305 13.1183 52.3938C13.2066 52.357 13.2856 52.3009 13.3496 52.2295C13.4742 52.0584 13.5335 51.8479 13.5168 51.6364C13.5168 51.0787 13.3232 50.7512 12.9184 50.7512L12.0384 50.7777Z" fill="#E4001D"/>
<path d="M19.6328 53.5219H18.3832V47.3252H19.6328V53.5219Z" fill="#E4001D"/>
<path d="M27.7024 50.9636C27.7468 51.6632 27.5373 52.3552 27.1128 52.9112C26.91 53.1438 26.6573 53.3269 26.3736 53.4465C26.09 53.5662 25.783 53.6192 25.476 53.6017C25.1701 53.6165 24.8647 53.563 24.5817 53.4452C24.2987 53.3274 24.0452 53.148 23.8392 52.92C23.4128 52.3715 23.2 51.6853 23.2408 50.9902V49.9279C23.1971 49.2092 23.4058 48.498 23.8304 47.9184C24.0301 47.6804 24.2817 47.4919 24.5656 47.3676C24.8494 47.2432 25.1579 47.1863 25.4672 47.2013C25.7754 47.1879 26.0827 47.2446 26.3661 47.3672C26.6495 47.4898 26.9017 47.6752 27.104 47.9095C27.5339 48.4801 27.7462 49.1868 27.7024 49.9013V50.9636ZM26.4528 49.919C26.4748 49.4955 26.3932 49.073 26.2152 48.6885C26.1403 48.5575 26.0307 48.4501 25.8986 48.3782C25.7665 48.3062 25.6172 48.2727 25.4672 48.2813C25.3207 48.2732 25.1749 48.3061 25.0459 48.3764C24.9169 48.4468 24.8099 48.5518 24.7368 48.6797C24.5509 49.0523 24.466 49.4675 24.4904 49.8836V50.9902C24.4628 51.4055 24.5448 51.8209 24.728 52.1941C24.8104 52.3168 24.922 52.4167 25.0527 52.4847C25.1833 52.5528 25.3289 52.5868 25.476 52.5836C25.6203 52.5907 25.7639 52.5592 25.8922 52.4923C26.0205 52.4255 26.1289 52.3256 26.2064 52.203C26.3885 51.8386 26.4734 51.4329 26.4528 51.0256V49.919Z" fill="#E4001D"/>
<path d="M33.8712 51.8842C33.8794 51.7801 33.8664 51.6754 33.8331 51.5765C33.7999 51.4776 33.7469 51.3865 33.6776 51.3088C33.4714 51.1284 33.2323 50.9901 32.9736 50.9016C32.4838 50.7295 32.0408 50.4445 31.68 50.0695C31.4105 49.7586 31.2661 49.3576 31.2752 48.9452C31.2658 48.7057 31.3108 48.4672 31.4069 48.2478C31.503 48.0284 31.6475 47.834 31.8296 47.6793C32.2246 47.3515 32.7258 47.1813 33.2376 47.2013C33.5922 47.1953 33.9428 47.2774 34.2584 47.4403C34.5458 47.5988 34.7835 47.8349 34.9448 48.1219C35.1067 48.433 35.1884 48.78 35.1824 49.1311H33.8888C33.9036 48.8924 33.8385 48.6556 33.704 48.4583C33.6389 48.3829 33.5574 48.3237 33.4658 48.2853C33.3742 48.2469 33.275 48.2304 33.176 48.237C33.082 48.231 32.9879 48.2452 32.8998 48.2788C32.8118 48.3124 32.7319 48.3646 32.6656 48.4318C32.6014 48.5019 32.552 48.5842 32.5203 48.674C32.4885 48.7637 32.4751 48.859 32.4808 48.9541C32.4822 49.0405 32.5008 49.1258 32.5356 49.2049C32.5704 49.2839 32.6205 49.3552 32.6832 49.4144C32.8965 49.6005 33.1408 49.7474 33.4048 49.8482C33.9052 50.0007 34.3592 50.2778 34.7248 50.6537C35.0105 50.9941 35.1582 51.4303 35.1384 51.8754C35.1469 52.1075 35.1048 52.3388 35.0151 52.5529C34.9254 52.7669 34.7903 52.9587 34.6192 53.1147C34.2272 53.4402 33.7274 53.6046 33.22 53.5751C32.8418 53.5813 32.4676 53.4963 32.1288 53.3272C31.8052 53.1756 31.5351 52.9286 31.3544 52.619C31.1629 52.2889 31.0654 51.9122 31.0728 51.5301H32.3312C32.3073 51.8068 32.3822 52.083 32.5424 52.3092C32.6315 52.3963 32.738 52.4634 32.8548 52.5061C32.9716 52.5488 33.096 52.5662 33.22 52.557C33.66 52.5836 33.8712 52.3446 33.8712 51.8842Z" fill="white"/>
<path d="M40.48 50.0872L41.4128 47.2898H42.768L41.1224 51.2557V53.5219H39.8552V51.2557L38.192 47.2898H39.6L40.48 50.0872Z" fill="white"/>
<path d="M48.5496 51.8842C48.5689 51.6917 48.5155 51.4989 48.4 51.3442C48.1939 51.1637 47.9547 51.0254 47.696 50.937C47.1904 50.7712 46.7317 50.4858 46.3584 50.1049C46.0889 49.7939 45.9446 49.393 45.9536 48.9806C45.9442 48.7411 45.9893 48.5025 46.0853 48.2832C46.1814 48.0638 46.326 47.8694 46.508 47.7147C46.8492 47.452 47.2565 47.2904 47.6841 47.2482C48.1117 47.2059 48.5426 47.2847 48.928 47.4757C49.2187 47.6328 49.4596 47.869 49.6232 48.1573C49.7851 48.4684 49.8668 48.8154 49.8608 49.1665H48.5672C48.582 48.9278 48.5169 48.6909 48.3824 48.4937C48.242 48.3605 48.0562 48.2863 47.8632 48.2863C47.6702 48.2863 47.4844 48.3605 47.344 48.4937C47.2799 48.5638 47.2304 48.6462 47.1987 48.7359C47.1669 48.8257 47.1535 48.9209 47.1592 49.016C47.1606 49.1025 47.1793 49.1877 47.214 49.2668C47.2488 49.3459 47.299 49.4171 47.3616 49.4763C47.5736 49.6643 47.8182 49.8114 48.0832 49.9101C48.5836 50.0626 49.0376 50.3397 49.4032 50.7157C49.6858 51.0573 49.8303 51.4934 49.808 51.9373C49.8066 52.1598 49.7588 52.3795 49.6679 52.5822C49.577 52.785 49.4448 52.9664 49.28 53.1147C48.888 53.4401 48.3882 53.6046 47.8808 53.575C47.5025 53.5823 47.1281 53.4973 46.7896 53.3272C46.4661 53.1755 46.196 52.9286 46.0152 52.619C45.8375 52.2941 45.7494 51.9273 45.76 51.5567H47.0184C46.9945 51.8333 47.0694 52.1095 47.2296 52.3357C47.3187 52.4228 47.4252 52.4899 47.542 52.5326C47.6588 52.5753 47.7833 52.5927 47.9072 52.5835C48.3296 52.5835 48.5496 52.3445 48.5496 51.8842Z" fill="white"/>
<path d="M57.3056 48.3344H55.7744V53.5219H54.56V48.3344H53.02V47.2898H57.3056V48.3344Z" fill="white"/>
<path d="M63.888 50.8219H61.9344V52.4773H64.24V53.5219H60.72V47.3252H64.24V48.3344H61.9344V49.8039H63.888V50.8219Z" fill="white"/>
<path d="M69.3616 47.2898L70.532 51.7957L71.7024 47.2898H73.3304V53.4865H72.0808V51.8311L72.16 49.2373L70.9192 53.5219H70.0392L68.7984 49.2373L68.9128 51.8311V53.5219H67.76V47.3252L69.3616 47.2898Z" fill="white"/>
<path d="M79.5871 51.8842C79.5997 51.6744 79.5303 51.4679 79.3935 51.3088C79.1846 51.1324 78.9462 50.9946 78.6895 50.9016C78.1805 50.7377 77.7185 50.4522 77.3431 50.0695C77.0773 49.7564 76.9335 49.3569 76.9383 48.9452C76.9289 48.7057 76.974 48.4672 77.0701 48.2478C77.1661 48.0284 77.3107 47.834 77.4927 47.6793C77.8882 47.3522 78.3891 47.1821 78.9007 47.2013C79.2555 47.1942 79.6064 47.2763 79.9215 47.4403C80.211 47.596 80.4494 47.8328 80.6079 48.1219C80.7698 48.433 80.8515 48.78 80.8455 49.1311H79.6047C79.6195 48.8924 79.5545 48.6556 79.4199 48.4583C79.278 48.3245 79.0908 48.2501 78.8963 48.2501C78.7018 48.2501 78.5146 48.3245 78.3727 48.4583C78.3086 48.5284 78.2592 48.6108 78.2274 48.7005C78.1957 48.7903 78.1822 48.8855 78.1879 48.9806C78.1894 49.0671 78.208 49.1524 78.2428 49.2314C78.2775 49.3105 78.3277 49.3817 78.3903 49.441C78.6058 49.6288 78.8532 49.7757 79.1207 49.8747C79.6175 50.0296 80.0681 50.3065 80.4319 50.6803C80.7177 51.0207 80.8654 51.4569 80.8455 51.9019C80.8502 52.1297 80.8063 52.3558 80.7167 52.565C80.6271 52.7742 80.494 52.9617 80.3263 53.1147C79.9343 53.4402 79.4346 53.6046 78.9271 53.5751C78.549 53.5813 78.1748 53.4963 77.8359 53.3272C77.5142 53.1728 77.2449 52.9265 77.0615 52.619C76.8727 52.2882 76.7783 51.9114 76.7887 51.5301H78.0383C78.0145 51.8068 78.0894 52.083 78.2495 52.3092C78.3387 52.3963 78.4452 52.4634 78.562 52.5061C78.6787 52.5488 78.8032 52.5662 78.9271 52.557C79.3671 52.5836 79.5871 52.3446 79.5871 51.8842Z" fill="white"/>
</g>
<defs>
<clipPath id="clip0_215_9">
<rect width="88" height="54" fill="white"/>
</clipPath>
</defs>
</svg>
